<?xml version="1.0" encoding="UTF-8" standalone="no"?> <svg xmlns="http://www.w3.org/2000/svg" viewBox="0 0 64 64"><g id="Flat"><path d="M52,43.12V56a2.006,2.006,0,0,1-2,2H14a2.006,2.006,0,0,1-2-2V43.12a4.009,4.009,0,0,1,3.03-3.88L28,36h8l6.99,1.75,5.98,1.49A4.009,4.009,0,0,1,52,43.12Z" style="fill:#d33d48"/><path d="M42.99,37.75A20.561,20.561,0,0,1,22.43,58H14a2.006,2.006,0,0,1-2-2V43.12a4.009,4.009,0,0,1,3.03-3.88L28,36h8Z" style="fill:#dd4a5c"/><polygon points="36 31 36 38 32 40 28 38 28 31 36 31" style="fill:#f9be9d"/><path d="M36,31v1.06a8.981,8.981,0,0,1-8,0V31Z" style="fill:#efa986"/><path d="M21,18h2a0,0,0,0,1,0,0v4a0,0,0,0,1,0,0H21a2,2,0,0,1-2-2v0a2,2,0,0,1,2-2Z" style="fill:#f7ad89"/><path d="M43,18h2a0,0,0,0,1,0,0v4a0,0,0,0,1,0,0H43a2,2,0,0,1-2-2v0A2,2,0,0,1,43,18Z" transform="translate(86 40) rotate(180)" style="fill:#f7ad89"/><path d="M41,14v9a9,9,0,0,1-18,0V14Z" style="fill:#f9be9d"/><path d="M28,36a8.768,8.768,0,0,0,4,4l-4,3-4-6Z" style="fill:#c63446"/><path d="M36,36a7.2,7.2,0,0,1-4,4l4,3,4-6Z" style="fill:#c63446"/><path d="M28,22a1,1,0,0,1-1-1V19a1,1,0,0,1,2,0v2A1,1,0,0,1,28,22Z" style="fill:#a67c52"/><path d="M36,22a1,1,0,0,1-1-1V19a1,1,0,0,1,2,0v2A1,1,0,0,1,36,22Z" style="fill:#a67c52"/><path d="M32,28.47a5.484,5.484,0,0,1-2.447-.575,1,1,0,0,1,.894-1.79,3.484,3.484,0,0,0,3.106,0,1,1,0,1,1,.894,1.79A5.484,5.484,0,0,1,32,28.47Z" style="fill:#a67c52"/><rect x="21" y="55" width="22" height="6" style="fill:#a67c52"/><rect x="21" y="49" width="22" height="6" style="fill:#a67c52"/><path d="M40.65,49a5.769,5.769,0,0,1-1.41,2.24A5.944,5.944,0,0,1,35,53H21V49Z" style="fill:#ba906a"/><path d="M40.65,55a5.769,5.769,0,0,1-1.41,2.24A5.944,5.944,0,0,1,35,59H21V55Z" style="fill:#ba906a"/><path d="M49,55v4a2.006,2.006,0,0,1-2,2H43V53h4A2.006,2.006,0,0,1,49,55Z" style="fill:#f9aa87"/><path d="M48,55v4a2.006,2.006,0,0,1-2,2H43V53h3A2.006,2.006,0,0,1,48,55Z" style="fill:#f9be9d"/><path d="M15,53h4a2,2,0,0,1,2,2v4a2,2,0,0,1-2,2H15a0,0,0,0,1,0,0V53A0,0,0,0,1,15,53Z" transform="translate(36 114) rotate(-180)" style="fill:#f9aa87"/><rect x="30" y="49" width="4" height="2" style="fill:#a56e49"/><rect x="30" y="55" width="4" height="2" style="fill:#a56e49"/><rect x="18" y="45" width="2" height="6.092" style="fill:#c63446"/><rect x="44" y="45" width="2" height="6" style="fill:#c63446"/><rect x="31" y="44" width="2" height="2" style="fill:#c63446"/><rect x="23" y="49" width="4" height="2" rx="1" style="fill:#c69d7b"/><rect x="23" y="55" width="4" height="2" rx="1" style="fill:#c69d7b"/><path d="M44.5,50h0A1.5,1.5,0,0,1,46,51.5V53a0,0,0,0,1,0,0H43a0,0,0,0,1,0,0V51.5A1.5,1.5,0,0,1,44.5,50Z" style="fill:#f9b08c"/><path d="M18,50h3a0,0,0,0,1,0,0v1.5A1.5,1.5,0,0,1,19.5,53h0A1.5,1.5,0,0,1,18,51.5V50A0,0,0,0,1,18,50Z" transform="translate(39 103) rotate(-180)" style="fill:#f9b08c"/><path d="M41,14.34v3.02a32.22,32.22,0,0,0-18,0V14.34c.39-.13.79-.24,1.19-.34a30.2,30.2,0,0,1,15.62,0C40.21,14.1,40.61,14.21,41,14.34Z" style="fill:#f4ab87"/><path d="M42,7v7H22V7a4,4,0,0,1,4-4H38A4,4,0,0,1,42,7Z" style="fill:#d33d48"/><path d="M37,3V4.99A9.018,9.018,0,0,1,27.99,14H22V7a4,4,0,0,1,4-4Z" style="fill:#d85061"/><path d="M41.176,16.414a32.049,32.049,0,0,0-18.35,0A1.434,1.434,0,0,1,21,15.028h0a1.443,1.443,0,0,1,.972-1.37,30.688,30.688,0,0,1,20.055,0A1.447,1.447,0,0,1,43,15.029h0A1.434,1.434,0,0,1,41.176,16.414Z" style="fill:#c63446"/><rect x="25" y="3" width="7" height="2" rx="1" style="fill:#e55a71"/><rect x="33" y="3" width="3" height="2" rx="1" style="fill:#e55a71"/><path d="M16,59V55a2.006,2.006,0,0,1,2-2h3v8H18A2.006,2.006,0,0,1,16,59Z" style="fill:#f9be9d"/></g></svg>